<svg width="121" height="27" viewBox="0 0 121 27" fill="none" xmlns="http://www.w3.org/2000/svg">
<path d="M1.89953 4.58812V10.1C1.89953 11.0041 1.89953 12.0197 0 12.0197V13.5089V13.529V14.9809C1.89953 14.9809 1.89953 15.9959 1.89953 16.9006V22.4119C1.89953 26.6894 4.2729 27 8.30857 27V23.6732C6.40905 23.6732 5.69739 23.397 5.69739 22.3298V16.8725C5.69739 15.6124 5.78501 14.296 4.67104 13.4997C5.78501 12.7046 5.69739 11.3882 5.69739 10.1269V4.67079C5.69739 3.60471 6.40964 3.32742 8.30857 3.32742V7.89382e-07C4.2729 -0.000572509 1.89953 0.31001 1.89953 4.58812ZM12.5791 4.40958C11.5414 5.27531 11.0229 6.51879 11.0229 8.13887V9.59418H8.85513V12.6351H11.0229V23.6554H15.7332V12.6351H18.6514V9.59418H15.7332V8.55623C15.7332 8.02807 15.8906 7.62104 16.2053 7.33514C16.52 7.04924 16.97 6.90687 17.5535 6.90687C17.8402 6.90687 19.3046 6.91146 19.3046 6.91146V3.38254C19.3046 3.38254 16.6899 3.35441 16.3162 3.35441C15.1789 3.35441 13.6168 3.54271 12.5791 4.40958ZM21.3764 6.89883H26.0874V3.38254H21.3764V6.89883ZM21.3764 23.6559H26.0874V9.59418H21.3764V23.6559ZM37.7039 9.33412C36.8146 9.33412 36.0082 9.53161 35.2858 9.92543C34.5634 10.3193 33.9567 10.8681 33.4655 11.569L33.285 9.59418H28.8797V23.6554H33.5627V13.5456C33.8035 13.2856 34.0932 13.0806 34.4311 12.9348C34.7691 12.789 35.1559 12.7138 35.5916 12.7138C36.2865 12.7138 36.8122 12.8808 37.1686 13.2138C37.5251 13.5479 37.7039 14.1163 37.7039 14.9229V23.6565H42.4005V14.9361C42.4005 12.9865 41.9857 11.5656 41.1572 10.6729C40.3282 9.78019 39.1767 9.33412 37.7039 9.33412ZM56.605 16.7227C55.7205 16.0515 54.3604 15.5458 52.5264 15.2082C51.3594 15.0015 50.5828 14.7662 50.1989 14.5061C49.8145 14.2472 49.622 13.9297 49.622 13.5577C49.622 13.1673 49.7889 12.8487 50.122 12.5967C50.4552 12.3452 50.8677 12.2189 51.3588 12.2189C52.0257 12.2189 52.5097 12.3624 52.8107 12.6483C53.1117 12.9342 53.2625 13.3545 53.2625 13.9085H57.8203L57.8483 13.831C57.9043 12.5037 57.3393 11.425 56.1532 10.5885C54.9671 9.75206 53.3733 9.33355 51.3725 9.33355C49.473 9.33355 47.968 9.76526 46.8558 10.6275C45.7442 11.4898 45.1887 12.5393 45.1887 13.7776C45.1887 14.947 45.6334 15.8707 46.5226 16.5458C47.4119 17.2221 48.7321 17.7198 50.4832 18.0408C51.5948 18.2572 52.3613 18.5018 52.7827 18.7744C53.2047 19.0477 53.4151 19.3583 53.4151 19.7027C53.4151 20.1276 53.2529 20.456 52.9287 20.6839C52.6045 20.9135 52.1277 21.03 51.4977 21.03C50.7383 21.03 50.1518 20.8814 49.74 20.5874C49.3275 20.2935 49.1124 19.8124 49.0939 19.1453H44.8419L44.8144 19.2228C44.759 20.4192 45.3258 21.5025 46.5167 22.4722C47.7069 23.4429 49.3257 23.9275 51.3731 23.9275C53.3465 23.9275 54.9325 23.5181 56.1323 22.6989C57.3327 21.8803 57.9323 20.8394 57.9323 19.5736C57.9323 18.3445 57.4895 17.3938 56.605 16.7227ZM73.3717 17.7428H73.2883L70.8154 9.59533H67.8549L65.4095 17.8088H65.326L63.6726 9.59533H59.3372L62.8805 23.6565H66.8417L69.3003 16.1974H69.3837L71.8298 23.6565H75.8041L79.3338 9.59533H74.9983L73.3717 17.7428ZM87.308 9.33404C85.0753 9.32551 83.3581 9.99949 82.1589 11.3555C80.9579 12.7109 80.3583 14.459 80.3583 16.5986V17.0929C80.3583 19.0506 81.0187 20.6798 82.3377 21.9796C83.6579 23.2799 85.4257 23.9292 87.6399 23.9292C88.835 23.9292 89.9537 23.7799 90.9962 23.4808C92.038 23.1823 92.8885 22.808 93.5453 22.3573L92.4344 19.6798C91.619 20.0013 90.9449 20.2257 90.4121 20.3561C89.8786 20.487 89.1676 20.5518 88.2783 20.5518C87.398 20.5518 86.6947 20.3199 86.1666 19.8566C85.6379 19.3916 85.3238 18.8009 85.2213 18.0821L85.2499 18.0034H93.8368V15.7019C93.8368 13.7443 93.2575 12.1937 92.1 11.0495C90.9437 9.90591 89.3452 9.33404 87.308 9.33404ZM89.2534 15.261H85.2094L85.1676 15.1967C85.2421 14.4424 85.4484 13.8401 85.7869 13.3895C86.1243 12.94 86.6321 12.7144 87.3086 12.7144C87.9755 12.7144 88.4654 12.905 88.7819 13.2862C89.0966 13.6673 89.2546 14.2133 89.2546 14.9235L89.2534 15.261ZM103.069 9.33404C100.837 9.32551 99.1206 9.99949 97.9202 11.3555C96.721 12.7109 96.1202 14.459 96.1202 16.5986V17.0929C96.1202 19.0506 96.7806 20.6798 98.1008 21.9796C99.4215 23.2799 101.188 23.9292 103.402 23.9292C104.597 23.9292 105.716 23.7799 106.759 23.4808C107.801 23.1823 108.651 22.808 109.308 22.3573L108.197 19.6798C107.381 20.0013 106.708 20.2257 106.174 20.3561C105.64 20.487 104.931 20.5518 104.041 20.5518C103.161 20.5518 102.458 20.3199 101.929 19.8566C101.4 19.3916 101.086 18.8009 100.984 18.0821L101.012 18.0034H109.599V15.7019C109.599 13.7443 109.02 12.1937 107.862 11.0495C106.704 9.90591 105.108 9.33404 103.069 9.33404ZM105.014 15.261H100.971L100.929 15.1967C101.004 14.4424 101.21 13.8401 101.548 13.3895C101.885 12.94 102.393 12.7144 103.069 12.7144C103.736 12.7144 104.227 12.905 104.543 13.2862C104.859 13.6673 105.016 14.2133 105.016 14.9235V15.2616H105.014V15.261ZM119.249 20.0087C118.665 20.0087 118.215 19.8664 117.901 19.5805C117.586 19.2946 117.428 18.8864 117.428 18.3582V12.6598H119.872V9.61772H117.428V3.36015H112.718V9.61772H110.549V12.6598H112.718V18.7756C112.718 20.3957 113.236 21.6392 114.273 22.506C115.31 23.3735 116.872 23.5612 118.011 23.5612C118.385 23.5612 121 23.5331 121 23.5331V20.0041C121 20.0041 119.537 20.0087 119.249 20.0087Z" fill="white"/>
</svg>
