<svg width="25" height="24" viewBox="0 0 25 24" fill="none" xmlns="http://www.w3.org/2000/svg">
<g clip-path="url(#clip0_482_1267)">
<path d="M8.21666 21.7497C17.271 21.7497 22.2248 14.2465 22.2248 7.74162C22.2248 7.53068 22.2201 7.31505 22.2107 7.10412C23.1744 6.40722 24.006 5.54401 24.6665 4.55505C23.769 4.95436 22.8161 5.21514 21.8404 5.32849C22.8678 4.71266 23.637 3.74523 24.0056 2.60552C23.0391 3.17831 21.9821 3.58237 20.8799 3.80037C20.1373 3.01132 19.1555 2.48887 18.0862 2.31381C17.0169 2.13874 15.9197 2.32081 14.9642 2.83185C14.0088 3.3429 13.2483 4.15446 12.8004 5.14107C12.3524 6.12767 12.2419 7.23437 12.486 8.29005C10.529 8.19185 8.61444 7.68346 6.86649 6.79785C5.11853 5.91225 3.5762 4.66919 2.33947 3.14927C1.7109 4.233 1.51856 5.5154 1.80153 6.73585C2.08451 7.95629 2.82157 9.0232 3.86291 9.71974C3.08113 9.69492 2.31648 9.48444 1.63213 9.10568V9.16662C1.63143 10.3039 2.0246 11.4063 2.74481 12.2865C3.46503 13.1667 4.46783 13.7703 5.58275 13.9947C4.85856 14.1929 4.09849 14.2218 3.36135 14.0791C3.67596 15.0572 4.28808 15.9126 5.11227 16.5261C5.93647 17.1395 6.93162 17.4804 7.95885 17.501C6.21493 18.8709 4.06068 19.6139 1.84307 19.6104C1.44979 19.6098 1.0569 19.5857 0.666504 19.5382C2.91936 20.9835 5.54004 21.7511 8.21666 21.7497Z" fill="white"/>
</g>
<defs>
<clipPath id="clip0_482_1267">
<rect width="24" height="24" fill="white" transform="translate(0.666504)"/>
</clipPath>
</defs>
</svg>
