<svg width="227" height="128" viewBox="0 0 227 128" fill="none" xmlns="http://www.w3.org/2000/svg">
<path d="M71.197 54.0291H75.004V72.5076H71.197V54.0291Z" fill="#1E1B1B"/>
<path d="M77.1356 66.1774C77.1356 64.848 77.5273 63.5484 78.2611 62.4436C78.9948 61.3387 80.0376 60.4782 81.2571 59.9712C82.4767 59.4642 83.8182 59.3335 85.1115 59.5957C86.4049 59.8579 87.5919 60.5011 88.522 61.4439C89.4522 62.3866 90.0837 63.5865 90.3365 64.8913C90.5892 66.1962 90.4518 67.5473 89.9417 68.7733C89.4317 69.9994 88.5718 71.0453 87.4713 71.7783C86.3707 72.5114 85.0789 72.8987 83.7597 72.8911C82.8847 72.898 82.0171 72.7288 81.2078 72.3933C80.3986 72.0579 79.664 71.563 79.047 70.9377C78.43 70.3124 77.9432 69.5692 77.6149 68.7518C77.2867 67.9344 77.1238 67.0592 77.1356 66.1774ZM86.6783 66.1774C86.6633 65.6043 86.481 65.0483 86.1541 64.579C85.8272 64.1097 85.3703 63.748 84.8405 63.539C84.3107 63.3301 83.7315 63.2832 83.1754 63.4042C82.6192 63.5252 82.1109 63.8088 81.7138 64.2194C81.3168 64.6301 81.0487 65.1496 80.9431 65.713C80.8375 66.2764 80.899 66.8586 81.1201 67.3869C81.3411 67.9152 81.7118 68.3662 82.1858 68.6833C82.6598 69.0004 83.2161 69.1696 83.785 69.1698C84.1724 69.1774 84.5572 69.1044 84.9153 68.9554C85.2734 68.8064 85.5971 68.5845 85.8663 68.3036C86.1355 68.0228 86.3442 67.689 86.4796 67.3232C86.6149 66.9573 86.6739 66.5673 86.6529 66.1774H86.6783Z" fill="#1E1B1B"/>
<path d="M105.447 59.8477V71.8811C105.447 76.1267 102.147 77.9298 98.8099 77.9298C97.6327 78.0272 96.452 77.7915 95.4005 77.2492C94.349 76.707 93.4686 75.8798 92.8584 74.8607L96.0689 72.9936C96.3291 73.5222 96.7429 73.9584 97.2553 74.244C97.7676 74.5295 98.3542 74.651 98.9368 74.5921C99.3079 74.6382 99.6846 74.6011 100.04 74.4834C100.395 74.3657 100.72 74.1703 100.992 73.9113C101.263 73.6523 101.475 73.336 101.611 72.985C101.747 72.634 101.805 72.2571 101.779 71.8811V70.7174C101.336 71.2587 100.774 71.6884 100.138 71.9726C99.501 72.2567 98.8074 72.3874 98.112 72.3543C96.4292 72.3543 94.8154 71.6806 93.6255 70.4815C92.4356 69.2824 91.7671 67.6561 91.7671 65.9603C91.7671 64.2645 92.4356 62.6382 93.6255 61.4391C94.8154 60.24 96.4292 59.5663 98.112 59.5663C98.8074 59.5332 99.501 59.6639 100.138 59.948C100.774 60.2321 101.336 60.6619 101.779 61.2032V59.9244L105.447 59.8477ZM101.779 65.9219C101.805 65.3101 101.648 64.7046 101.329 64.1834C101.01 63.6621 100.544 63.2489 99.9899 62.9969C99.4361 62.7449 98.8201 62.6656 98.2212 62.7692C97.6223 62.8727 97.0679 63.1545 96.6292 63.5782C96.1905 64.0019 95.8876 64.5481 95.7594 65.1467C95.6312 65.7453 95.6837 66.3688 95.91 66.9371C96.1363 67.5054 96.5261 67.9925 97.0293 68.3357C97.5325 68.6789 98.1261 68.8626 98.7338 68.8631C99.1303 68.8919 99.5283 68.8366 99.9023 68.7007C100.276 68.5648 100.618 68.3514 100.905 68.0742C101.192 67.797 101.418 67.4622 101.569 67.0915C101.719 66.7208 101.791 66.3223 101.779 65.9219Z" fill="#1E1B1B"/>
<path d="M107.591 66.1775C107.591 64.8491 107.982 63.5506 108.715 62.4463C109.447 61.342 110.489 60.4815 111.707 59.9737C112.925 59.4659 114.265 59.3337 115.558 59.5938C116.85 59.8539 118.037 60.4946 118.968 61.4348C119.9 62.375 120.533 63.5724 120.789 64.8756C121.044 66.1788 120.911 67.5291 120.404 68.7556C119.898 69.9822 119.042 71.0298 117.945 71.766C116.848 72.5021 115.559 72.8937 114.24 72.8912C113.364 72.8998 112.494 72.7319 111.683 72.3974C110.871 72.0628 110.134 71.5684 109.515 70.9431C108.896 70.3178 108.407 69.5742 108.076 68.7559C107.746 67.9375 107.581 67.0609 107.591 66.1775ZM117.134 66.1775C117.119 65.6038 116.936 65.0474 116.609 64.5778C116.281 64.1083 115.823 63.7466 115.293 63.538C114.762 63.3294 114.183 63.2833 113.626 63.4053C113.07 63.5274 112.561 63.8122 112.165 64.2241C111.768 64.6361 111.501 65.1567 111.397 65.721C111.293 66.2852 111.356 66.8678 111.579 67.3959C111.802 67.924 112.175 68.374 112.651 68.6896C113.126 69.0051 113.684 69.1722 114.253 69.1699C114.641 69.1775 115.025 69.1045 115.383 68.9555C115.741 68.8065 116.065 68.5846 116.334 68.3037C116.604 68.0229 116.812 67.6891 116.948 67.3233C117.083 66.9574 117.142 66.5674 117.121 66.1775H117.134Z" fill="#1E1B1B"/>
<path d="M122.654 56.4586C122.654 56.0084 122.786 55.5683 123.034 55.194C123.283 54.8197 123.635 54.5279 124.048 54.3556C124.461 54.1834 124.915 54.1383 125.353 54.2261C125.791 54.3139 126.194 54.5307 126.51 54.8491C126.826 55.1674 127.041 55.573 127.128 56.0146C127.215 56.4561 127.17 56.9138 126.999 57.3297C126.828 57.7456 126.539 58.1011 126.167 58.3513C125.796 58.6014 125.359 58.7349 124.913 58.7349C124.316 58.7282 123.745 58.4863 123.323 58.0608C122.9 57.6354 122.66 57.0603 122.654 56.4586ZM123.022 59.8474H126.829V72.5075H123.022V59.8474Z" fill="#1E1B1B"/>
<path d="M143.122 66.1777C143.165 67.0196 143.042 67.8618 142.761 68.6557C142.479 69.4495 142.044 70.1795 141.482 70.8035C140.919 71.4274 140.24 71.9331 139.483 72.2915C138.725 72.6498 137.905 72.8536 137.069 72.8913C136.36 72.9389 135.65 72.8244 134.99 72.5565C134.331 72.2886 133.741 71.8741 133.262 71.344V77.5973H129.456V59.8476H133.262V61.0369C133.741 60.5084 134.332 60.0958 134.991 59.8301C135.651 59.5643 136.361 59.4523 137.069 59.5024C137.902 59.5401 138.719 59.7428 139.473 60.0987C140.228 60.4546 140.906 60.9568 141.468 61.5767C142.03 62.1965 142.465 62.9219 142.749 63.7113C143.033 64.5008 143.16 65.3388 143.122 66.1777ZM139.316 66.1777C139.301 65.5837 139.112 65.0075 138.773 64.5211C138.435 64.0347 137.961 63.6599 137.412 63.4436C136.863 63.2273 136.263 63.1791 135.687 63.3051C135.11 63.4311 134.584 63.7257 134.173 64.1519C133.762 64.5782 133.486 65.1171 133.378 65.7012C133.27 66.2852 133.335 66.8884 133.566 67.4352C133.796 67.982 134.182 68.448 134.674 68.7748C135.167 69.1016 135.744 69.2747 136.333 69.2723C136.737 69.2896 137.14 69.2207 137.516 69.07C137.891 68.9194 138.231 68.6905 138.512 68.3982C138.794 68.106 139.011 67.7572 139.15 67.3745C139.288 66.9918 139.344 66.5839 139.316 66.1777Z" fill="#1E1B1B"/>
<path d="M154.708 68.7097C154.708 71.6253 152.17 72.8658 149.48 72.8658C148.383 72.9653 147.281 72.7309 146.317 72.1929C145.354 71.6549 144.572 70.838 144.074 69.8478L147.348 67.9808C147.478 68.4371 147.759 68.8347 148.145 69.107C148.531 69.3794 148.997 69.51 149.467 69.477C150.368 69.477 150.825 69.1956 150.825 68.6841C150.825 67.2902 144.645 68.0319 144.645 63.6457C144.645 60.8835 146.955 59.5024 149.569 59.5024C150.563 59.4575 151.55 59.6847 152.426 60.1598C153.301 60.6349 154.033 61.3401 154.543 62.2006L151.269 63.9398C151.125 63.6099 150.888 63.3293 150.589 63.1318C150.289 62.9344 149.939 62.8286 149.582 62.8272C148.922 62.8272 148.528 63.083 148.528 63.5306C148.528 64.9884 154.708 64.0293 154.708 68.7097Z" fill="#1E1B1B"/>
<path d="M168.502 59.8477V72.5077H164.695V71.3184C164.263 71.8449 163.713 72.2615 163.092 72.5347C162.47 72.8079 161.794 72.9301 161.117 72.8913C158.579 72.8913 156.409 71.0627 156.409 67.6483V59.8477H160.216V67.0728C160.186 67.3749 160.221 67.6799 160.32 67.9668C160.418 68.2537 160.577 68.5156 160.786 68.7345C160.995 68.9533 161.248 69.1239 161.529 69.2345C161.809 69.345 162.11 69.3928 162.411 69.3747C163.781 69.3747 164.746 68.5562 164.746 66.8171V59.8477H168.502Z" fill="#1E1B1B"/>
<path d="M190.074 64.7325V72.5076H186.267V65.065C186.267 63.7862 185.671 62.9934 184.465 62.9934C183.26 62.9934 182.498 63.8757 182.498 65.3719V72.5076H178.692V65.065C178.692 63.7862 178.095 62.9934 176.89 62.9934C175.684 62.9934 174.923 63.8757 174.923 65.3719V72.5076H171.116V59.8475H174.923V61.0112C175.317 60.4971 175.832 60.09 176.421 59.8265C177.01 59.5631 177.655 59.4517 178.298 59.5023C178.942 59.4684 179.583 59.6039 180.16 59.8953C180.736 60.1868 181.227 60.6242 181.585 61.1647C182.003 60.6 182.556 60.1514 183.193 59.8607C183.83 59.57 184.53 59.4466 185.227 59.5023C188.196 59.5023 190.074 61.5739 190.074 64.7325Z" fill="#1E1B1B"/>
<path d="M48.5201 50.7042V45.2693H31.5159V82.6101H48.5201V77.1752C45.0368 77.1752 41.6962 75.7807 39.2331 73.2986C36.77 70.8165 35.3862 67.4499 35.3862 63.9397C35.3862 60.4294 36.77 57.0629 39.2331 54.5808C41.6962 52.0986 45.0368 50.7042 48.5201 50.7042Z" fill="#1E1B1B"/>
<path d="M48.5203 50.7041V77.1751C52.0036 77.1751 55.3442 75.7807 57.8073 73.2985C60.2704 70.8164 61.6542 67.4499 61.6542 63.9396C61.6542 60.4293 60.2704 57.0628 57.8073 54.5807C55.3442 52.0986 52.0036 50.7041 48.5203 50.7041Z" fill="#1E1B1B"/>
<path d="M193.272 59.7707C194.814 59.7707 196.064 58.5112 196.064 56.9574C196.064 55.4036 194.814 54.144 193.272 54.144C191.731 54.144 190.481 55.4036 190.481 56.9574C190.481 58.5112 191.731 59.7707 193.272 59.7707Z" fill="#1E1B1B"/>
</svg>
