<svg width="226" height="127" viewBox="0 0 226 127" fill="none" xmlns="http://www.w3.org/2000/svg">
<path d="M81.25 56.031H85.0569V71.3964H81.25V56.031ZM86.567 65.5948C86.567 61.7946 88.9019 59.5272 92.5058 59.5272C96.1097 59.5272 98.4446 61.7946 98.4446 65.5948C98.4446 69.395 96.1605 71.6751 92.5058 71.6751C88.8512 71.6751 86.567 69.4583 86.567 65.5948ZM94.625 65.5948C94.625 63.5047 93.8002 62.276 92.5058 62.276C91.2115 62.276 90.3993 63.5427 90.3993 65.5948C90.3993 67.6469 91.1988 68.8883 92.5058 68.8883C93.8129 68.8883 94.625 67.7229 94.625 65.6075V65.5948ZM99.8786 72.1438H103.533C103.707 72.5295 104.001 72.8489 104.372 73.0543C104.742 73.2597 105.169 73.3402 105.589 73.2839C107.036 73.2839 107.797 72.4985 107.797 71.3584V69.2303H107.721C107.418 69.8826 106.925 70.4291 106.308 70.7994C105.69 71.1697 104.976 71.3468 104.257 71.3078C101.477 71.3078 99.6375 69.1923 99.6375 65.5568C99.6375 61.9213 101.389 59.6285 104.307 59.6285C105.049 59.5995 105.782 59.7975 106.408 60.1959C107.034 60.5944 107.523 61.1743 107.81 61.858V59.7425H111.617V71.2698C111.617 74.0439 109.167 75.7667 105.551 75.7667C102.188 75.7667 100.094 74.2592 99.8786 72.1565V72.1438ZM107.81 65.5821C107.81 63.7327 106.959 62.5673 105.614 62.5673C104.269 62.5673 103.444 63.7201 103.444 65.5821C103.444 67.4442 104.257 68.4956 105.614 68.4956C106.972 68.4956 107.81 67.4696 107.81 65.5948V65.5821ZM113.051 65.5821C113.051 61.782 115.385 59.5145 118.989 59.5145C122.593 59.5145 124.941 61.782 124.941 65.5821C124.941 69.3823 122.657 71.6624 118.989 71.6624C115.322 71.6624 113.051 69.4583 113.051 65.5948V65.5821ZM121.109 65.5821C121.109 63.492 120.284 62.2633 118.989 62.2633C117.695 62.2633 116.946 63.5427 116.946 65.6075C116.946 67.6723 117.746 68.901 119.04 68.901C120.334 68.901 121.109 67.7229 121.109 65.6075V65.5821ZM126.387 56.9811C126.377 56.5974 126.482 56.2194 126.687 55.895C126.893 55.5706 127.19 55.3144 127.542 55.1589C127.893 55.0034 128.283 54.9556 128.662 55.0215C129.041 55.0874 129.391 55.2641 129.669 55.5292C129.947 55.7943 130.14 56.1359 130.224 56.5106C130.307 56.8853 130.277 57.2762 130.138 57.6339C129.998 57.9915 129.755 58.2998 129.44 58.5196C129.125 58.7394 128.751 58.8608 128.367 58.8685C128.112 58.886 127.857 58.8506 127.616 58.7648C127.376 58.6789 127.155 58.5443 126.97 58.3694C126.784 58.1945 126.636 57.9832 126.536 57.7486C126.436 57.5141 126.385 57.2614 126.387 57.0064V56.9811ZM126.387 59.7679H130.194V71.3964H126.387V59.7679ZM144.014 65.5821C144.014 69.3823 142.326 71.5484 139.433 71.5484C138.691 71.596 137.952 71.4149 137.317 71.0298C136.681 70.6447 136.179 70.074 135.879 69.395H135.803V75.1206H131.996V59.7425H135.803V61.82H135.879C136.165 61.1297 136.658 60.5442 137.289 60.1431C137.92 59.7419 138.66 59.5445 139.407 59.5778C142.326 59.6285 144.064 61.8073 144.064 65.6075L144.014 65.5821ZM140.207 65.5821C140.207 63.7327 139.356 62.5547 138.024 62.5547C136.692 62.5547 135.841 63.7454 135.829 65.5821C135.816 67.4189 136.692 68.597 138.024 68.597C139.356 68.597 140.207 67.4442 140.207 65.6075V65.5821ZM150.549 59.5018C153.709 59.5018 155.625 60.9966 155.714 63.3907H152.249C152.249 62.5673 151.564 62.048 150.511 62.048C149.457 62.048 148.988 62.4533 148.988 63.0487C148.988 63.6441 149.407 63.8341 150.257 64.0114L152.693 64.5054C155.016 64.9994 156.005 65.9368 156.005 67.6976C156.005 70.1044 153.81 71.6498 150.574 71.6498C147.338 71.6498 145.219 70.1044 145.054 67.7356H148.721C148.836 68.597 149.521 69.1037 150.638 69.1037C151.754 69.1037 152.262 68.7363 152.262 68.1283C152.262 67.5202 151.907 67.3936 150.993 67.2036L148.798 66.7349C146.526 66.2662 145.333 65.0628 145.333 63.2894C145.359 61.0093 147.402 59.5272 150.549 59.5272V59.5018ZM168.708 71.3711H165.04V69.205H164.964C164.763 69.9323 164.318 70.5688 163.704 71.0089C163.09 71.449 162.344 71.6662 161.589 71.6244C161.01 71.6573 160.432 71.5658 159.892 71.3562C159.352 71.1466 158.863 70.8237 158.459 70.4094C158.055 69.9951 157.745 69.4991 157.549 68.9547C157.353 68.4104 157.277 67.8305 157.325 67.2542V59.7425H161.132V66.3802C161.132 67.7609 161.843 68.4956 163.023 68.4956C163.3 68.4962 163.573 68.4377 163.825 68.3241C164.078 68.2104 164.303 68.0443 164.485 67.8368C164.668 67.6292 164.804 67.3851 164.884 67.1208C164.965 66.8565 164.988 66.5781 164.952 66.3042V59.7425H168.759L168.708 71.3711ZM170.548 59.7425H174.228V61.9846H174.304C174.506 61.267 174.941 60.6365 175.54 60.1918C176.139 59.7471 176.869 59.5134 177.616 59.5272C178.376 59.4665 179.13 59.6934 179.73 60.1628C180.329 60.6323 180.73 61.3098 180.852 62.0606H180.928C181.158 61.3018 181.635 60.641 182.283 60.1823C182.931 59.7236 183.713 59.4931 184.507 59.5272C185.024 59.5098 185.54 59.6014 186.02 59.7959C186.5 59.9905 186.933 60.2836 187.292 60.6564C187.651 61.0291 187.928 61.4731 188.104 61.9594C188.28 62.4458 188.351 62.9637 188.313 63.4794V71.3964H184.507V64.4928C184.507 63.226 183.936 62.6433 182.87 62.6433C182.632 62.6413 182.397 62.6902 182.179 62.7868C181.962 62.8833 181.768 63.0252 181.611 63.2028C181.453 63.3805 181.336 63.5899 181.266 63.8168C181.196 64.0437 181.176 64.2828 181.207 64.5181V71.3964H177.591V64.4421C177.591 63.2767 177.02 62.6433 175.979 62.6433C175.739 62.6434 175.501 62.6944 175.282 62.7928C175.063 62.8913 174.867 63.0351 174.707 63.2146C174.548 63.3942 174.428 63.6055 174.357 63.8345C174.285 64.0636 174.263 64.3052 174.291 64.5434V71.3964H170.484L170.548 59.7425Z" fill="#1E1B1B"/>
<path d="M70.6035 56.7278C69.9578 55.2538 69.103 53.8801 68.0656 52.6489C66.532 50.7746 64.6181 49.2457 62.45 48.163C60.2818 47.0802 57.9085 46.468 55.4862 46.3668C53.064 46.2656 50.6477 46.6776 48.3965 47.5757C46.1453 48.4738 44.1101 49.8376 42.4249 51.5775C40.7397 53.3173 39.4428 55.3936 38.6194 57.6699C37.796 59.9461 37.4649 62.3706 37.6478 64.7837C37.8307 67.1969 38.5235 69.5441 39.6806 71.6707C40.8377 73.7973 42.4329 75.6552 44.3611 77.1222C45.5984 78.0822 46.9655 78.8626 48.4219 79.4403C50.4637 80.2755 52.6489 80.7058 54.8556 80.707C59.4104 80.6969 63.7755 78.8845 66.9939 75.6671C70.2123 72.4496 72.0215 68.0896 72.0248 63.5428C72.0281 61.1975 71.5442 58.877 70.6035 56.7278ZM54.8429 49.8495C56.8244 49.8493 58.7821 50.2816 60.5786 51.1162C60.1405 51.3052 59.6799 51.4371 59.2081 51.5089C57.6557 51.7332 56.2175 52.4527 55.1083 53.5599C53.9991 54.6672 53.2783 56.1028 53.0536 57.6525C52.955 58.5217 52.559 59.3302 51.9325 59.9417C51.306 60.5533 50.4874 60.9304 49.6147 61.0094C48.0622 61.2337 46.6241 61.9532 45.5148 63.0604C44.4056 64.1676 43.6849 65.6033 43.4602 67.153C43.3841 67.9794 43.0309 68.756 42.4577 69.3571C41.4687 67.2711 41.0244 64.9693 41.1662 62.6659C41.308 60.3624 42.0312 58.1322 43.2685 56.1828C44.5058 54.2334 46.2171 52.6281 48.243 51.5163C50.2689 50.4045 52.5437 49.8224 54.8556 49.8241L54.8429 49.8495ZM44.3484 72.4099C44.5007 72.2706 44.653 72.1439 44.8053 71.9919C45.9342 70.8993 46.6589 69.457 46.861 67.9004C46.943 67.0254 47.3343 66.2081 47.965 65.5949C48.5719 64.9643 49.3888 64.5769 50.2619 64.5055C51.8143 64.2812 53.2525 63.5617 54.3617 62.4545C55.4709 61.3472 56.1917 59.9116 56.4164 58.3619C56.4713 57.4467 56.8647 56.5845 57.5204 55.9424C58.1423 55.3241 58.9669 54.9507 59.8426 54.8911C61.2689 54.6952 62.599 54.0623 63.6496 53.0796C64.8458 54.0703 65.8593 55.2621 66.6443 56.6011C66.5961 56.6662 66.5408 56.7257 66.4794 56.7785C65.8737 57.4146 65.0578 57.8106 64.1825 57.8932C62.6285 58.1136 61.1881 58.8318 60.0782 59.9398C58.9683 61.0477 58.2488 62.4855 58.028 64.0368C57.9386 64.9089 57.5499 65.7233 56.9278 66.342C56.3056 66.9607 55.4884 67.3456 54.6145 67.4317C53.0575 67.6543 51.6139 68.3723 50.4983 69.4791C49.3827 70.5859 48.6545 72.0225 48.4219 73.5753C48.3536 74.1944 48.1406 74.7888 47.8001 75.3107C46.4981 74.5391 45.332 73.5591 44.3484 72.4099ZM54.8429 77.2995C53.5552 77.3009 52.2737 77.1218 51.0359 76.7675C51.4594 75.9796 51.7346 75.1209 51.8481 74.234C51.937 73.3639 52.3239 72.551 52.9435 71.9326C53.563 71.3141 54.3773 70.9279 55.2489 70.8392C56.8037 70.6174 58.2447 69.899 59.3564 68.7915C60.4682 67.6841 61.1908 66.2471 61.4162 64.6955C61.5051 63.8254 61.892 63.0126 62.5115 62.3941C63.1311 61.7757 63.9454 61.3895 64.817 61.3007C65.987 61.1488 67.1022 60.7139 68.0656 60.034C68.6005 62.0581 68.6639 64.1776 68.2508 66.23C67.8378 68.2824 66.9592 70.213 65.6826 71.8738C64.406 73.5346 62.7653 74.8814 60.8863 75.811C59.0073 76.7405 56.9399 77.228 54.8429 77.2362V77.2995Z" fill="#1E1B1B"/>
</svg>
