<svg width="225" height="127" viewBox="0 0 225 127" fill="none" xmlns="http://www.w3.org/2000/svg">
<path d="M52.2793 61.4792C51.801 61.9622 51.4347 62.5451 51.2065 63.1864C50.9783 63.8277 50.8938 64.5117 50.9591 65.1895L50.9364 65.1667C51.0035 65.9645 50.8963 66.7675 50.6223 67.5194C50.3482 68.2714 49.914 68.9543 49.3499 69.5205C48.7857 70.0867 48.1052 70.5225 47.3559 70.7975C46.6066 71.0725 45.8066 71.18 45.0116 71.1127L45.0343 71.1355C44.0833 71.0467 43.1282 71.2544 42.2991 71.7303C41.4701 72.2061 40.8075 72.9271 40.4016 73.7947C39.9958 74.6624 39.8665 75.6346 40.0314 76.5787C40.1962 77.5228 40.6472 78.3929 41.3229 79.0704C41.9985 79.7479 42.8659 80.1997 43.8068 80.3643C44.7477 80.5289 45.7163 80.3983 46.5805 79.9902C47.4447 79.5821 48.1625 78.9165 48.6359 78.084C49.1094 77.2515 49.3154 76.2928 49.2261 75.3385L49.2501 75.3613C49.183 74.5635 49.2901 73.7605 49.5642 73.0085C49.8382 72.2566 50.2724 71.5736 50.8366 71.0075C51.4007 70.4413 52.0812 70.0055 52.8305 69.7305C53.5798 69.4555 54.3798 69.3479 55.1748 69.4153L55.1509 69.3925C55.9277 69.4626 56.7096 69.3348 57.4241 69.0209C58.1386 68.707 58.7625 68.2171 59.2382 67.5968C59.7138 66.9764 60.0257 66.2456 60.145 65.472C60.2642 64.6985 60.187 63.9072 59.9204 63.1716C59.6538 62.436 59.2065 61.7798 58.62 61.2639C58.0334 60.748 57.3266 60.389 56.5649 60.2202C55.8033 60.0514 55.0116 60.0783 54.2631 60.2984C53.5146 60.5185 52.8336 60.9247 52.2831 61.4792H52.2793Z" fill="#1E1B1B"/>
<path d="M42.9678 68.1486L42.9439 68.1258C43.6196 68.1941 44.3019 68.1109 44.9417 67.8822C45.5814 67.6534 46.1624 67.2848 46.6428 66.8031C47.1232 66.3213 47.4909 65.7384 47.7193 65.0966C47.9478 64.4548 48.0312 63.77 47.9636 63.0918L47.9876 63.1146C47.9205 62.3168 48.0277 61.5138 48.3017 60.7619C48.5757 60.0099 49.01 59.327 49.5741 58.7608C50.1383 58.1946 50.8188 57.7588 51.568 57.4838C52.3173 57.2088 53.1174 57.1013 53.9124 57.1686L53.8884 57.1458C54.8395 57.2354 55.7949 57.0285 56.6245 56.5531C57.454 56.0777 58.1172 55.3572 58.5236 54.4896C58.9301 53.6221 59.06 52.6498 58.8956 51.7055C58.7312 50.7611 58.2806 49.8906 57.6052 49.2127C56.9297 48.5349 56.0623 48.0826 55.1214 47.9176C54.1804 47.7527 53.2116 47.883 52.3471 48.291C51.4827 48.6989 50.7647 49.3645 50.291 50.197C49.8174 51.0295 49.6111 51.9883 49.7004 52.9428L49.6777 52.9187C49.7451 53.7166 49.638 54.5197 49.3641 55.2717C49.0901 56.0238 48.6559 56.7068 48.0917 57.2731C47.5275 57.8393 46.8469 58.2751 46.0975 58.55C45.3481 58.8249 44.548 58.9323 43.7529 58.8648L43.7757 58.8888C43.1 58.8205 42.4176 58.9037 41.7779 59.1325C41.1381 59.3613 40.5571 59.7298 40.0767 60.2116C39.5963 60.6933 39.2286 61.2762 39.0002 61.918C38.7717 62.5599 38.6883 63.2446 38.7559 63.9228L38.7332 63.9C38.8 64.6978 38.6927 65.5006 38.4186 66.2525C38.1445 67.0044 37.7103 67.6872 37.1462 68.2534C36.5821 68.8195 35.9017 69.2553 35.1525 69.5304C34.4033 69.8054 33.6033 69.9132 32.8084 69.846L32.8311 69.8688C31.88 69.7792 30.9246 69.9862 30.0951 70.4615C29.2655 70.9369 28.6023 71.6575 28.1959 72.525C27.7894 73.3926 27.6595 74.3648 27.8239 75.3092C27.9883 76.2535 28.4389 77.124 29.1144 77.8019C29.7898 78.4798 30.6572 78.932 31.5982 79.097C32.5392 79.262 33.5079 79.1316 34.3724 78.7237C35.2368 78.3158 35.9548 77.6502 36.4285 76.8177C36.9022 75.9852 37.1084 75.0263 37.0191 74.0719L37.0431 74.0947C36.976 73.2968 37.0831 72.4939 37.3572 71.7419C37.6312 70.9899 38.0654 70.307 38.6296 69.7408C39.1937 69.1746 39.8742 68.7389 40.6235 68.4639C41.3728 68.1889 42.1728 68.0813 42.9678 68.1486Z" fill="#1E1B1B"/>
<path d="M34.5087 65.6063C34.9871 65.1234 35.3534 64.5405 35.5814 63.8991C35.8094 63.2578 35.8935 62.5738 35.8277 61.896L35.8517 61.9188C35.7846 61.1208 35.8918 60.3176 36.166 59.5654C36.4401 58.8132 36.8746 58.1302 37.439 57.564C38.0035 56.9977 38.6843 56.562 39.4339 56.2872C40.1835 56.0124 40.9838 55.9051 41.779 55.9728L41.7551 55.95C42.7058 56.0394 43.6608 55.8323 44.49 55.357C45.3191 54.8817 45.982 54.1612 46.3882 53.294C46.7944 52.4267 46.9242 51.4548 46.7598 50.5108C46.5954 49.5668 46.1449 48.6966 45.4697 48.019C44.7945 47.3414 43.9275 46.8893 42.9868 46.7243C42.0462 46.5594 41.0778 46.6896 40.2136 47.0973C39.3494 47.5049 38.6316 48.1702 38.158 49.0023C37.6843 49.8344 37.478 50.7929 37.5671 51.747L37.5443 51.7242C37.6114 52.522 37.5043 53.325 37.2302 54.077C36.9562 54.829 36.522 55.5119 35.9578 56.078C35.3937 56.6442 34.7132 57.08 33.9639 57.355C33.2146 57.63 32.4146 57.7376 31.6196 57.6702L31.6423 57.693C30.8655 57.6231 30.0837 57.7511 29.3693 58.0652C28.6549 58.3792 28.0311 58.8691 27.5556 59.4896C27.0801 60.11 26.7683 60.8408 26.6492 61.6144C26.5301 62.3879 26.6075 63.1791 26.8741 63.9146C27.1408 64.6501 27.5882 65.3062 28.1747 65.8221C28.7613 66.3379 29.4682 66.6968 30.2297 66.8655C30.9913 67.0342 31.783 67.0072 32.5315 66.7871C33.2799 66.567 33.9609 66.1608 34.5113 65.6063H34.5087Z" fill="#1E1B1B"/>
<path d="M73.6079 52.9719H77.3566V71.28H73.6079V52.9719Z" fill="#1E1B1B"/>
<path d="M79.4797 65.0108C79.4744 63.6951 79.8584 62.4075 80.5829 61.3109C81.3074 60.2144 82.3399 59.3584 83.5496 58.8513C84.7593 58.3441 86.0917 58.2087 87.3782 58.4621C88.6646 58.7156 89.8472 59.3465 90.776 60.275C91.7049 61.2034 92.3383 62.3877 92.596 63.6777C92.8537 64.9677 92.7241 66.3055 92.2236 67.5215C91.7231 68.7376 90.8743 69.7772 89.7846 70.5087C88.6949 71.2402 87.4134 71.6307 86.1025 71.6307C85.2322 71.6407 84.3687 71.4764 83.5625 71.1476C82.7562 70.8188 82.0234 70.332 81.4067 69.7156C80.7901 69.0993 80.3021 68.3657 79.9712 67.5579C79.6403 66.7501 79.4732 65.8842 79.4797 65.0108ZM88.9765 65.0108C88.9609 64.4437 88.779 63.8938 88.4536 63.4298C88.1283 62.9659 87.6739 62.6085 87.1473 62.4023C86.6206 62.1961 86.0451 62.1503 85.4926 62.2706C84.9402 62.3909 84.4353 62.6719 84.0412 63.0786C83.647 63.4853 83.3811 63.9996 83.2765 64.5571C83.172 65.1147 83.2336 65.6908 83.4536 66.2134C83.6735 66.736 84.0421 67.182 84.5133 67.4955C84.9844 67.809 85.5372 67.9762 86.1025 67.9762C86.4896 67.9866 86.8747 67.9163 87.2334 67.7699C87.5922 67.6235 87.9168 67.404 88.1868 67.1254C88.4569 66.8468 88.6664 66.5151 88.8024 66.1511C88.9383 65.7872 88.9976 65.3989 88.9765 65.0108Z" fill="#1E1B1B"/>
<path d="M107.666 58.7406V70.6479C107.666 74.861 104.392 76.642 101.068 76.642C99.8981 76.7299 98.7265 76.4927 97.6818 75.9565C96.6372 75.4202 95.7598 74.6055 95.146 73.6019L98.3444 71.7461C98.6024 72.2693 99.0135 72.7009 99.5226 72.9832C100.032 73.2655 100.615 73.385 101.193 73.3257C101.563 73.3772 101.94 73.3445 102.295 73.2301C102.651 73.1157 102.976 72.9226 103.247 72.665C103.518 72.4074 103.728 72.0919 103.861 71.7419C103.995 71.3918 104.048 71.0162 104.017 70.6428V69.4964C103.578 70.0355 103.019 70.4637 102.385 70.7468C101.752 71.03 101.061 71.1601 100.368 71.1267C98.7191 71.0745 97.1553 70.3806 96.0075 69.1917C94.8596 68.0028 94.2178 66.4124 94.2178 64.757C94.2178 63.1015 94.8596 61.5111 96.0075 60.3222C97.1553 59.1333 98.7191 58.4394 100.368 58.3872C101.061 58.3538 101.752 58.4839 102.385 58.7671C103.019 59.0502 103.578 59.4784 104.017 60.0175V58.7381L107.666 58.7406ZM104.018 64.7589C104.043 64.1525 103.887 63.5525 103.57 63.0361C103.252 62.5196 102.788 62.1103 102.237 61.8608C101.686 61.6113 101.073 61.5331 100.477 61.6362C99.8808 61.7394 99.3293 62.0191 98.8931 62.4394C98.457 62.8597 98.1562 63.4015 98.0294 63.9948C97.9027 64.5882 97.9557 65.206 98.1818 65.7688C98.4079 66.3317 98.7966 66.8137 99.298 67.153C99.7994 67.4922 100.39 67.6731 100.995 67.6723C101.389 67.6999 101.784 67.6444 102.155 67.5094C102.527 67.3743 102.866 67.1628 103.15 66.8883C103.435 66.6139 103.659 66.2826 103.809 65.9158C103.958 65.549 104.03 65.1549 104.018 64.7589Z" fill="#1E1B1B"/>
<path d="M109.789 65.0108C109.784 63.6951 110.167 62.4075 110.892 61.3109C111.617 60.2144 112.649 59.3584 113.859 58.8513C115.068 58.3441 116.401 58.2087 117.687 58.4621C118.974 58.7156 120.156 59.3465 121.085 60.275C122.014 61.2034 122.647 62.3877 122.905 63.6777C123.163 64.9677 123.033 66.3055 122.533 67.5215C122.032 68.7376 121.183 69.7772 120.094 70.5087C119.004 71.2402 117.723 71.6307 116.412 71.6307C115.541 71.6407 114.678 71.4764 113.872 71.1476C113.065 70.8188 112.332 70.332 111.716 69.7156C111.099 69.0993 110.611 68.3657 110.28 67.5579C109.949 66.7501 109.782 65.8842 109.789 65.0108ZM119.286 65.0108C119.27 64.4437 119.088 63.8938 118.763 63.4298C118.437 62.9659 117.983 62.6085 117.456 62.4023C116.93 62.1961 116.354 62.1503 115.802 62.2706C115.249 62.3909 114.744 62.6719 114.35 63.0786C113.956 63.4853 113.69 63.9996 113.586 64.5571C113.481 65.1147 113.543 65.6908 113.763 66.2134C113.983 66.736 114.351 67.182 114.822 67.4955C115.293 67.809 115.846 67.9762 116.412 67.9762C116.799 67.9866 117.184 67.9163 117.543 67.7699C117.901 67.6235 118.226 67.404 118.496 67.1254C118.766 66.8468 118.976 66.5151 119.111 66.1511C119.247 65.7872 119.307 65.3989 119.286 65.0108Z" fill="#1E1B1B"/>
<path d="M124.783 55.3799C124.783 54.9334 124.915 54.497 125.162 54.1258C125.409 53.7546 125.76 53.4652 126.171 53.2944C126.582 53.1235 127.034 53.0788 127.471 53.1659C127.907 53.253 128.308 53.468 128.622 53.7837C128.937 54.0994 129.151 54.5016 129.238 54.9395C129.325 55.3774 129.28 55.8312 129.11 56.2437C128.94 56.6562 128.651 57.0087 128.282 57.2568C127.912 57.5048 127.477 57.6372 127.032 57.6372C126.437 57.6312 125.869 57.3915 125.448 56.9695C125.028 56.5474 124.789 55.9767 124.783 55.3799ZM125.161 58.7405H128.911V71.2811H125.156L125.161 58.7405Z" fill="#1E1B1B"/>
<path d="M145.098 65.0108C145.141 65.8396 145.021 66.6688 144.744 67.4507C144.467 68.2327 144.038 68.9519 143.483 69.5671C142.928 70.1824 142.257 70.6814 141.51 71.0355C140.762 71.3897 139.951 71.5919 139.125 71.6307C138.431 71.6687 137.736 71.5511 137.092 71.2865C136.449 71.0218 135.871 70.6167 135.403 70.1005V76.2961H131.654V58.7404H135.403V59.9185C135.872 59.4027 136.449 58.9979 137.093 58.7334C137.736 58.469 138.431 58.3515 139.125 58.3896C139.951 58.4281 140.762 58.6303 141.51 58.9845C142.258 59.3387 142.929 59.8378 143.484 60.4532C144.039 61.0686 144.468 61.788 144.745 62.5702C145.022 63.3524 145.142 64.1818 145.098 65.0108ZM141.349 65.0108C141.335 64.4238 141.148 63.8543 140.812 63.3734C140.477 62.8925 140.007 62.5217 139.463 62.3073C138.918 62.0928 138.322 62.0444 137.751 62.1679C137.179 62.2915 136.656 62.5816 136.247 63.0019C135.839 63.4222 135.563 63.9541 135.454 64.531C135.346 65.1079 135.409 65.7041 135.636 66.245C135.864 66.786 136.245 67.2477 136.732 67.5723C137.22 67.8969 137.792 68.07 138.377 68.0699C138.778 68.0878 139.179 68.0204 139.553 67.872C139.927 67.7235 140.265 67.4975 140.546 67.2086C140.827 66.9198 141.043 66.5746 141.182 66.1959C141.32 65.8171 141.377 65.4132 141.349 65.0108Z" fill="#1E1B1B"/>
<path d="M156.666 67.5178C156.666 70.4021 154.168 71.6308 151.469 71.6308C150.379 71.7299 149.284 71.4985 148.326 70.9665C147.368 70.4344 146.592 69.6263 146.096 68.6464L149.344 66.7907C149.475 67.2436 149.757 67.6376 150.143 67.9068C150.529 68.1761 150.996 68.3044 151.464 68.2702C152.363 68.2702 152.814 67.994 152.814 67.4937C152.814 66.113 146.665 66.8413 146.665 62.5028C146.665 59.7679 148.965 58.3897 151.564 58.3897C152.541 58.3587 153.508 58.5912 154.365 59.0631C155.222 59.535 155.937 60.229 156.436 61.0726L153.238 62.803C153.097 62.4745 152.864 62.1947 152.566 61.9985C152.269 61.8023 151.92 61.6984 151.564 61.6997C150.914 61.6997 150.514 61.953 150.514 62.4014C150.519 63.8316 156.666 62.8777 156.666 67.5178Z" fill="#1E1B1B"/>
<path d="M170.36 58.7407V71.2814H166.611V70.102C166.179 70.6224 165.629 71.0324 165.009 71.2984C164.388 71.5644 163.713 71.6788 163.039 71.6322C160.515 71.6322 158.369 69.8271 158.369 66.4386V58.7407H162.118V65.8876C162.086 66.1863 162.12 66.4882 162.217 66.7724C162.314 67.0567 162.471 67.3163 162.678 67.5333C162.885 67.7503 163.136 67.9195 163.415 68.0291C163.693 68.1386 163.992 68.1859 164.291 68.1677C165.666 68.1677 166.615 67.3659 166.615 65.5849V58.7445L170.36 58.7407Z" fill="#1E1B1B"/>
<path d="M191.855 63.5808V71.28H188.106V63.9063C188.106 62.6523 187.507 61.8504 186.308 61.8504C185.058 61.8504 184.358 62.7283 184.358 64.2078V71.28H180.61V63.9063C180.61 62.6523 180.01 61.8504 178.81 61.8504C177.561 61.8504 176.861 62.7283 176.861 64.2078V71.28H173.113V58.7393H176.861V59.892C177.25 59.3807 177.76 58.9751 178.345 58.7124C178.93 58.4498 179.571 58.3384 180.21 58.3884C180.851 58.357 181.49 58.4928 182.064 58.7827C182.637 59.0727 183.126 59.5068 183.483 60.0428C183.898 59.482 184.448 59.0362 185.082 58.7468C185.716 58.4575 186.412 58.3342 187.107 58.3884C189.976 58.3897 191.855 60.4456 191.855 63.5808Z" fill="#1E1B1B"/>
<path d="M195.026 58.6633C196.562 58.6633 197.807 57.4134 197.807 55.8715C197.807 54.3296 196.562 53.0796 195.026 53.0796C193.489 53.0796 192.244 54.3296 192.244 55.8715C192.244 57.4134 193.489 58.6633 195.026 58.6633Z" fill="#1E1B1B"/>
</svg>
