<svg width="226" height="127" viewBox="0 0 226 127" fill="none" xmlns="http://www.w3.org/2000/svg">
<path d="M78.4561 56.2717H82.5295V72.7392H78.4561V56.2717ZM84.1538 66.5449C84.1538 62.466 86.6917 60.0212 90.4986 60.0212C94.3056 60.0212 96.8435 62.466 96.8435 66.5449C96.8435 70.6237 94.3944 73.0938 90.4986 73.0938C86.6029 73.0938 84.1538 70.7124 84.1538 66.5449ZM92.8082 66.5449C92.8082 64.3027 91.9326 62.9853 90.5367 62.9853C89.1408 62.9853 88.2779 64.2521 88.2779 66.5449C88.2779 68.8376 89.1408 70.0917 90.5367 70.0917C91.9326 70.0917 92.8335 68.8376 92.8335 66.5575L92.8082 66.5449ZM98.4678 73.5879H102.402C102.581 74.0106 102.893 74.3633 103.292 74.592C103.691 74.8207 104.154 74.913 104.61 74.8546C106.17 74.8546 106.983 74.0186 106.983 72.7772V70.497H106.995C106.659 71.207 106.116 71.7988 105.436 72.1945C104.757 72.5902 103.973 72.7712 103.188 72.7138C100.206 72.7138 98.2267 70.4464 98.2267 66.5449C98.2267 62.6433 100.117 60.2112 103.303 60.2112C104.107 60.1682 104.906 60.3754 105.587 60.8042C106.269 61.233 106.801 61.8622 107.11 62.6053H106.995V60.3125H111.031V72.6505C111.031 75.6273 108.391 77.4894 104.508 77.4894C100.98 77.4767 98.7216 75.868 98.4932 73.6005L98.4678 73.5879ZM106.995 66.5449C106.995 64.5561 106.082 63.302 104.635 63.302C103.188 63.302 102.3 64.5688 102.3 66.5449C102.3 68.5209 103.176 69.6863 104.635 69.6863C106.094 69.6863 106.995 68.6096 106.995 66.5449ZM112.642 66.5449C112.642 62.466 115.18 60.0212 118.987 60.0212C122.794 60.0212 125.332 62.466 125.332 66.5449C125.332 70.6237 122.87 73.0938 118.987 73.0938C115.104 73.0938 112.668 70.7124 112.668 66.5449H112.642ZM121.297 66.5449C121.297 64.3027 120.408 62.9853 119.025 62.9853C117.642 62.9853 116.766 64.2521 116.766 66.5449C116.766 68.8376 117.629 70.0917 119.025 70.0917C120.421 70.0917 121.322 68.8376 121.322 66.5575L121.297 66.5449ZM126.982 57.3104C126.964 56.8962 127.071 56.4862 127.288 56.1331C127.506 55.78 127.825 55.5 128.203 55.3291C128.581 55.1581 129.002 55.1041 129.412 55.174C129.821 55.2439 130.2 55.4344 130.5 55.7211C130.8 56.0078 131.007 56.3775 131.095 56.7827C131.183 57.1879 131.147 57.6101 130.993 57.9949C130.838 58.3797 130.572 58.7095 130.228 58.9419C129.884 59.1744 129.478 59.2988 129.063 59.2992C128.797 59.3059 128.533 59.2599 128.286 59.164C128.038 59.068 127.812 58.9239 127.621 58.74C127.43 58.5562 127.277 58.3363 127.172 58.093C127.066 57.8498 127.01 57.5881 127.007 57.3231L126.982 57.3104ZM126.982 60.2999H131.106V72.7898H127.045L126.982 60.2999ZM145.94 66.5449C145.94 70.6111 144.113 72.9672 141.004 72.9672C140.208 73.0162 139.416 72.8202 138.735 72.4056C138.054 71.9911 137.518 71.3779 137.197 70.6491H137.121V76.8054H133.047V60.3379H137.095V62.5673H137.172C137.481 61.8241 138.013 61.1942 138.694 60.7635C139.375 60.3328 140.173 60.1223 140.978 60.1605C144.176 60.1352 146.016 62.4787 146.016 66.5575L145.94 66.5449ZM141.791 66.5449C141.791 64.5688 140.864 63.2894 139.43 63.2894C137.996 63.2894 137.095 64.5561 137.083 66.5449C137.07 68.5336 137.996 69.7877 139.43 69.7877C140.864 69.7877 141.867 68.6096 141.867 66.5575L141.791 66.5449ZM152.894 60.0085C156.308 60.0085 158.427 61.6173 158.452 64.2014H154.734C154.734 63.302 153.986 62.7447 152.869 62.7447C151.752 62.7447 151.219 63.1754 151.219 63.8214C151.219 64.4674 151.689 64.6701 152.628 64.8601L155.242 65.3921C157.78 65.9242 158.795 66.9375 158.795 68.825C158.795 71.3584 156.447 73.0812 152.958 73.0812C149.468 73.0812 147.196 71.4091 147.032 68.863H150.978C151.092 69.7877 151.828 70.3324 153.021 70.3324C154.214 70.3324 154.772 69.9524 154.772 69.281C154.772 68.6096 154.392 68.4956 153.414 68.2929L151.054 67.7989C148.605 67.2796 147.323 66.0002 147.323 64.0874C147.4 61.6046 149.531 60.0212 152.97 60.0212L152.894 60.0085ZM172.436 72.7772H168.49V70.4337H168.414C168.193 71.2154 167.712 71.8985 167.05 72.3706C166.388 72.8427 165.584 73.0754 164.772 73.0305C164.158 73.0504 163.548 72.9407 162.98 72.7084C162.412 72.4762 161.9 72.1267 161.477 71.6829C161.054 71.2391 160.73 70.7111 160.526 70.1334C160.321 69.5557 160.242 68.9414 160.292 68.3309V60.3125H164.366V67.4569C164.366 68.9263 165.14 69.7243 166.409 69.7243C166.707 69.7221 167 69.6561 167.27 69.5309C167.54 69.4056 167.78 69.224 167.974 68.9982C168.167 68.7725 168.31 68.5079 168.393 68.2224C168.475 67.9368 168.495 67.6369 168.452 67.3429V60.3125H172.513L172.436 72.7772ZM174.403 60.2999H178.363V62.7067H178.451C178.67 61.9357 179.139 61.2588 179.784 60.7821C180.429 60.3053 181.215 60.0555 182.017 60.0719C182.823 60.0019 183.626 60.2345 184.269 60.7241C184.912 61.2137 185.349 61.9252 185.494 62.7193H185.672C185.925 61.9209 186.436 61.2286 187.125 60.7498C187.813 60.271 188.641 60.0327 189.479 60.0719C190.036 60.0507 190.591 60.1472 191.108 60.3551C191.625 60.5629 192.093 60.8774 192.479 61.278C192.866 61.6786 193.164 62.1562 193.353 62.6796C193.543 63.2031 193.619 63.7605 193.578 64.3154V72.7898H189.479V65.3541C189.479 64.0874 188.882 63.378 187.728 63.378C187.471 63.3738 187.217 63.425 186.983 63.5279C186.749 63.6309 186.539 63.7833 186.369 63.9746C186.199 64.1659 186.073 64.3916 185.998 64.6363C185.924 64.881 185.904 65.1388 185.938 65.3921V72.7898H182.055V65.3161C182.055 64.0494 181.433 63.378 180.317 63.378C180.058 63.376 179.802 63.4292 179.565 63.5341C179.329 63.6391 179.117 63.7933 178.946 63.9865C178.774 64.1796 178.645 64.4073 178.569 64.6541C178.492 64.9009 178.47 65.1612 178.502 65.4175V72.7898H174.429L174.403 60.2999Z" fill="#1E1B1B"/>
<path d="M70.3981 57.3487C70.3982 54.8275 69.6355 52.365 68.2099 50.2839C66.7843 48.2027 64.7623 46.5999 62.4087 45.6853C60.0551 44.7707 57.4796 44.587 55.0197 45.1583C52.5597 45.7296 50.33 47.0292 48.6225 48.8869H32.7856V82.2526H66.2231V66.6591C67.5355 65.4874 68.5857 64.0525 69.3051 62.4482C70.0245 60.844 70.3969 59.1063 70.3981 57.3487ZM63.9644 57.3487C63.9669 58.5568 63.6103 59.7385 62.9397 60.7442C62.2692 61.7499 61.3148 62.5345 60.1974 62.9986C59.08 63.4626 57.8498 63.5853 56.6624 63.3512C55.4751 63.117 54.3841 62.5365 53.5274 61.6831C52.6708 60.8298 52.087 59.7419 51.8499 58.5571C51.6129 57.3724 51.7333 56.1441 52.1958 55.0277C52.6584 53.9113 53.4423 52.957 54.4485 52.2856C55.4546 51.6141 56.6376 51.2557 57.8479 51.2557C59.4679 51.2557 61.0217 51.8972 62.1684 53.0395C63.3151 54.1818 63.961 55.7315 63.9644 57.3487ZM59.7894 75.8302H39.2193V55.3092H45.4881C45.367 55.9824 45.3033 56.6647 45.2977 57.3487C45.3011 60.6703 46.6244 63.8548 48.9773 66.2036C51.3302 68.5523 54.5204 69.8733 57.8479 69.8766C58.4984 69.8732 59.1477 69.8181 59.7894 69.7119V75.8302Z" fill="#1E1B1B"/>
</svg>
