<svg width="44" height="49" viewBox="0 0 44 49" fill="none" xmlns="http://www.w3.org/2000/svg">
<path d="M0.252823 27.0167C0.468003 26.7483 0.789086 26.5917 1.12594 26.5917H5.40814C6.46489 23.7424 7.8416 20.9508 9.40645 19.897C14.8198 16.2565 29.1783 16.2565 34.5916 19.897C36.1575 20.9519 37.5286 23.747 38.591 26.5917H42.8732C43.2134 26.5917 43.5334 26.7483 43.7463 27.0167C43.9604 27.2839 44.046 27.6374 43.9761 27.9772L43.3419 31.119C43.2337 31.6545 42.7718 32.0368 42.2389 32.0368H40.9704C42.195 33.4811 42.7887 35.2996 42.7966 37.1192C42.8045 39.3673 41.9697 41.3989 40.4431 42.8362C40.4262 42.8511 40.4093 42.8615 40.3936 42.8765V47.2724C40.3936 48.2249 39.6365 49 38.7037 49H34.7538C33.821 49 33.0639 48.2249 33.0639 47.2724V45.5058H10.9364V47.2724C10.9364 48.2249 10.1793 49 9.24647 49H5.29661C4.36604 49 3.60671 48.2249 3.60671 47.2724V42.9629C1.98666 41.4461 1.21269 39.3592 1.20255 37.2758C1.19579 35.394 1.81654 33.5087 3.11326 32.0345H1.76021C1.22508 32.0345 0.763174 31.6522 0.657273 31.1155L0.021872 27.9749C-0.0434708 27.6374 0.0387688 27.2862 0.252823 27.0167ZM32.7361 22.7819C28.4212 19.8785 15.5791 19.8785 11.2665 22.7819C10.4283 23.344 9.35012 25.6162 8.36209 28.3987H35.6382C34.6524 25.6174 33.5743 23.3463 32.7361 22.7819ZM37.79 37.5523C37.79 35.675 36.3006 34.1548 34.4654 34.1548C32.6279 34.1548 31.1408 35.675 31.1408 37.5523C31.1408 39.4295 32.6279 40.9509 34.4654 40.9509C36.3006 40.9509 37.79 39.4295 37.79 37.5523ZM9.49094 40.9509C11.3262 40.9509 12.8155 39.4295 12.8155 37.5523C12.8155 35.675 11.3262 34.1548 9.49094 34.1548C7.65346 34.1548 6.16634 35.675 6.16634 37.5523C6.16634 39.4295 7.65571 40.9509 9.49094 40.9509Z" fill="#1E1B1B"/>
<mask id="mask0_482_1528" style="mask-type:alpha" maskUnits="userSpaceOnUse" x="6" y="0" width="25" height="28">
<path d="M26.5548 14.4818C26.5055 15.0402 26.198 15.5656 25.6835 15.8602C25.2563 16.1048 24.8161 16.2847 24.3664 16.4064C24.6198 17.2806 25.0853 18.5457 25.914 19.9007C26.7012 21.1883 26.7105 22.7423 25.9388 24.1645C24.8019 26.2606 22.2915 27.6691 19.691 27.6691C17.9051 27.6691 16.3173 26.8283 15.2205 25.3014C13.653 23.1184 13.3056 19.8968 14.2919 16.6853C15.2062 13.7082 13.9834 12.12 13.1744 11.4373C12.5149 12.0871 11.6203 12.4878 10.6316 12.4878C8.60565 12.4878 6.96218 10.8082 6.96218 8.73616C6.96218 6.66411 8.60565 4.98501 10.6316 4.98501C12.6585 4.98501 14.301 6.66459 14.301 8.73616C14.301 9.0279 14.2655 9.31025 14.204 9.58283C15.7317 10.7252 17.4954 13.2966 16.2611 17.3169C15.4828 19.852 15.7216 22.4327 16.8852 24.0525C17.3785 24.74 18.2664 25.5593 19.6916 25.5593C21.5355 25.5593 23.3624 24.5648 24.134 23.1416C24.4186 22.6166 24.6543 21.8214 24.1635 21.0185C23.0674 19.2249 22.5188 17.5512 22.2587 16.5282C21.6495 16.4344 21.0547 16.2335 20.4825 15.9212C19.9725 15.6428 19.6596 15.1389 19.5907 14.5943C17.1663 12.3538 16.0469 8.31686 15.9825 8.0806C15.8518 7.59595 16.0752 7.0984 16.4917 6.87154C16.1569 3.84091 17.2541 2.31345 17.9162 1.69128C17.8657 1.40011 17.9797 1.08865 18.2299 0.921722L19.4465 0.108913C19.7642 -0.103252 20.1637 0.00382639 20.3379 0.349531L20.9176 1.49477C21.0922 1.84057 20.9383 2.20932 20.5735 2.31933L19.1981 2.7338C18.8494 2.83889 18.4316 2.66855 18.2341 2.35613C17.686 2.94644 16.8967 4.26069 17.1686 6.76778C17.5424 6.84052 17.8628 7.11889 17.9713 7.51913C18.3018 8.7317 19.2563 11.2363 20.6735 12.7382C21.1246 12.56 21.6432 12.5688 22.1032 12.8192C22.4028 12.9828 22.6957 13.0652 22.9964 13.0716H23.0584C23.3753 13.0647 23.6847 12.9734 24.0015 12.7922C24.4502 12.5349 24.9612 12.5123 25.4118 12.6748C26.7973 11.1668 27.7315 8.7152 28.0565 7.51932C28.1653 7.12012 28.4869 6.84109 28.8594 6.76844C29.1318 4.26135 28.3428 2.9471 27.7939 2.3568C27.5963 2.66912 27.179 2.83955 26.8302 2.73437L25.4548 2.3199C25.0906 2.20989 24.9357 1.84057 25.1108 1.49533L25.69 0.350005C25.8646 0.00420578 26.2641 -0.102778 26.5814 0.109387L27.7992 0.922765C28.0492 1.08969 28.1629 1.40106 28.1127 1.69232C28.7737 2.31459 29.8719 3.84138 29.5369 6.87249C29.9537 7.09945 30.1763 7.5969 30.0462 8.08212C29.9829 8.31344 28.8972 12.2217 26.5548 14.4818ZM10.6316 7.27083C9.8409 7.27083 9.1986 7.92648 9.1986 8.73635C9.1986 9.54565 9.8409 10.2018 10.6316 10.2018C11.4233 10.2018 12.0652 9.54565 12.0652 8.73635C12.0652 7.92639 11.4238 7.27083 10.6316 7.27083Z" fill="black"/>
</mask>
<g mask="url(#mask0_482_1528)">
<path d="M51.5149 -2.65564H18.4859L15.0996 6.21222L18.4859 19.5377H51.5149V-2.65564Z" fill="#1E1B1B"/>
</g>
</svg>
