<svg width="48" height="48" viewBox="0 0 48 48" fill="none" xmlns="http://www.w3.org/2000/svg">
<circle cx="24" cy="24" r="24" fill="#F2F2F2"/>
<path d="M13.9355 23.7744C13.3833 23.7744 12.9355 24.2221 12.9355 24.7744C12.9355 25.3267 13.3833 25.7744 13.9355 25.7744V23.7744ZM34.7717 25.4815C35.1622 25.091 35.1622 24.4578 34.7717 24.0673L28.4077 17.7033C28.0172 17.3128 27.384 17.3128 26.9935 17.7033C26.603 18.0939 26.603 18.727 26.9935 19.1176L32.6504 24.7744L26.9935 30.4313C26.603 30.8218 26.603 31.455 26.9935 31.8455C27.384 32.236 28.0172 32.236 28.4077 31.8455L34.7717 25.4815ZM13.9355 25.7744H34.0646V23.7744H13.9355V25.7744Z" fill="#1E1B1B"/>
</svg>
